<?xml version="1.0" encoding="utf-8"?>
<svg width="48px" height="48px" viewBox="0 0 48 48" version="1.1" xmlns:xlink="http://www.w3.org/1999/xlink" xmlns="http://www.w3.org/2000/svg">
  <desc>Created with Lunacy</desc>
  <defs>
    <path d="M0 0L48 0L48 48L0 48L0 0Z" id="path_1" />
    <path d="M7.99948 0L30.1866 1.90735e-06C30.3175 -1.90735e-06 30.4483 0.00321197 30.5791 0.00963402C30.7099 0.016058 30.8404 0.0256901 30.9707 0.0385189C31.1009 0.0513515 31.2309 0.0673733 31.3604 0.0865765C31.4899 0.105791 31.6188 0.128166 31.7472 0.153706C31.8756 0.179245 32.0033 0.20792 32.1303 0.239733C32.2573 0.271543 32.3835 0.30645 32.5088 0.344452C32.634 0.382454 32.7583 0.423511 32.8816 0.467617C33.0048 0.511719 33.1269 0.558821 33.2479 0.608923C33.3689 0.659025 33.4885 0.712059 33.6068 0.768034C33.7252 0.824011 33.8421 0.882851 33.9576 0.944567C34.073 1.00628 34.1869 1.07079 34.2992 1.13809C34.4115 1.2054 34.522 1.27542 34.6309 1.34815C34.7398 1.42089 34.8468 1.49625 34.9519 1.57423C35.057 1.65222 35.1602 1.73274 35.2614 1.8158C35.3626 1.89885 35.4617 1.98433 35.5587 2.07226C35.6558 2.16017 35.7505 2.25042 35.8431 2.34299C35.9357 2.43556 36.0259 2.53035 36.1138 2.62736C36.2017 2.72436 36.2872 2.82347 36.3703 2.92466C36.4534 3.02586 36.5339 3.12904 36.6118 3.23419C36.6898 3.33935 36.7652 3.44635 36.8379 3.5552C36.9107 3.66406 36.9807 3.77463 37.0479 3.88693C37.1153 3.99922 37.1798 4.11309 37.2416 4.22855C37.3032 4.34401 37.3621 4.46092 37.4181 4.57926C37.474 4.69761 37.527 4.81726 37.5772 4.93821C37.6273 5.05916 37.6743 5.18127 37.7185 5.30454C37.7626 5.4278 37.8036 5.55207 37.8416 5.67735C37.8796 5.80263 37.9145 5.92877 37.9464 6.05576C37.9782 6.18276 38.0069 6.31046 38.0324 6.43886C38.0579 6.56726 38.0803 6.69621 38.0995 6.82571C38.1187 6.95521 38.1347 7.08511 38.1476 7.21539C38.1604 7.34568 38.17 7.4762 38.1764 7.60697C38.1829 7.73773 38.1861 7.86857 38.1861 7.99948C38.1861 7.99948 38.1861 30.1865 38.1861 30.1865C38.1861 30.3175 38.1829 30.4483 38.1764 30.579C38.17 30.7099 38.1604 30.8404 38.1476 30.9707C38.1347 31.1009 38.1187 31.2308 38.0995 31.3603C38.0803 31.4898 38.0579 31.6188 38.0324 31.7472C38.0069 31.8756 37.9782 32.0033 37.9464 32.1302C37.9145 32.2573 37.8796 32.3834 37.8416 32.5087C37.8036 32.6339 37.7625 32.7582 37.7185 32.8815C37.6744 33.0048 37.6273 33.1269 37.5772 33.2478C37.527 33.3688 37.474 33.4884 37.4181 33.6068C37.3621 33.7252 37.3032 33.842 37.2416 33.9575C37.1798 34.0729 37.1153 34.1868 37.0479 34.2992C36.9807 34.4114 36.9107 34.522 36.8379 34.6308C36.7652 34.7397 36.6898 34.8467 36.6118 34.9518C36.5339 35.057 36.4534 35.1602 36.3703 35.2614C36.2872 35.3626 36.2017 35.4616 36.1138 35.5587C36.0259 35.6557 35.9357 35.7505 35.8431 35.8431C35.7505 35.9356 35.6558 36.0258 35.5587 36.1138C35.4617 36.2017 35.3626 36.2872 35.2614 36.3703C35.1602 36.4533 35.0571 36.5338 34.9519 36.6118C34.8468 36.6898 34.7398 36.7652 34.6309 36.8379C34.522 36.9107 34.4114 36.9807 34.2992 37.0479C34.1869 37.1153 34.073 37.1798 33.9576 37.2415C33.8421 37.3032 33.7252 37.3621 33.6068 37.4181C33.4885 37.474 33.3689 37.527 33.2479 37.5772C33.1269 37.6273 33.0048 37.6743 32.8816 37.7185C32.7583 37.7625 32.634 37.8036 32.5088 37.8416C32.3835 37.8796 32.2574 37.9145 32.1303 37.9463C32.0033 37.9781 31.8756 38.0068 31.7472 38.0323C31.6188 38.0579 31.4899 38.0803 31.3604 38.0995C31.2309 38.1187 31.1009 38.1347 30.9707 38.1475C30.8404 38.1604 30.7099 38.17 30.5791 38.1764C30.4483 38.1828 30.3175 38.186 30.1866 38.186C30.1866 38.186 7.99949 38.186 7.99949 38.186C7.86857 38.186 7.73773 38.1828 7.60697 38.1764C7.47621 38.17 7.34568 38.1604 7.2154 38.1475C7.08511 38.1347 6.95521 38.1187 6.82571 38.0995C6.69621 38.0803 6.56726 38.0579 6.43886 38.0323C6.31046 38.0068 6.18276 37.9781 6.05577 37.9463C5.92877 37.9145 5.80264 37.8796 5.67735 37.8416C5.55207 37.8036 5.4278 37.7625 5.30454 37.7184C5.18127 37.6743 5.05916 37.6273 4.93821 37.5772C4.81726 37.527 4.69761 37.474 4.57927 37.4181C4.46092 37.3621 4.34402 37.3032 4.22856 37.2415C4.1131 37.1798 3.99922 37.1153 3.88692 37.0479C3.77464 36.9807 3.66406 36.9107 3.55521 36.8379C3.44636 36.7652 3.33935 36.6898 3.2342 36.6118C3.12904 36.5338 3.02587 36.4533 2.92467 36.3703C2.82347 36.2872 2.72437 36.2017 2.62736 36.1138C2.53035 36.0258 2.43557 35.9356 2.34299 35.8431C2.25042 35.7505 2.16018 35.6557 2.07225 35.5587C1.98434 35.4616 1.89885 35.3626 1.8158 35.2614C1.73275 35.1602 1.65223 35.057 1.57424 34.9518C1.49625 34.8467 1.42089 34.7397 1.34815 34.6308C1.27542 34.522 1.2054 34.4114 1.1381 34.2992C1.0708 34.1868 1.00629 34.0729 0.944571 33.9575C0.882854 33.842 0.824011 33.7252 0.768038 33.6068C0.712063 33.4884 0.659025 33.3688 0.608927 33.2478C0.558825 33.1269 0.511724 33.0048 0.467617 32.8815C0.423513 32.7582 0.382462 32.6339 0.344456 32.5087C0.306452 32.3834 0.271545 32.2572 0.239735 32.1302C0.207928 32.0033 0.179249 31.8756 0.153709 31.7472C0.12817 31.6188 0.105793 31.4898 0.0865841 31.3603C0.0673733 31.2308 0.0513535 31.1009 0.0385208 30.9707C0.0256882 30.8404 0.0160599 30.7099 0.00963593 30.5791C0.00321388 30.4483 1.90735e-06 30.3175 1.90735e-06 30.1865C1.90735e-06 30.1865 0 7.99948 0 7.99948C0 7.86857 0.00321388 7.73773 0.00963783 7.60697C0.0160618 7.47621 0.0256901 7.34568 0.0385208 7.21539C0.0513535 7.08511 0.0673752 6.95521 0.0865822 6.82571C0.105795 6.69621 0.12817 6.56726 0.153709 6.43886C0.179247 6.31046 0.207926 6.18276 0.239735 6.05577C0.271544 5.92877 0.30645 5.80263 0.344458 5.67735C0.38246 5.55207 0.423513 5.4278 0.467619 5.30454C0.511723 5.18127 0.558826 5.05916 0.608927 4.93821C0.659027 4.81726 0.712063 4.69761 0.768038 4.57926C0.824013 4.46092 0.882854 4.34402 0.944571 4.22855C1.00629 4.11309 1.0708 3.99922 1.1381 3.88692C1.2054 3.77463 1.27542 3.66406 1.34815 3.5552C1.42089 3.44635 1.49625 3.33935 1.57424 3.23419C1.65223 3.12904 1.73275 3.02586 1.8158 2.92466C1.89885 2.82347 1.98434 2.72436 2.07226 2.62736C2.16017 2.53035 2.25042 2.43556 2.34299 2.34299C2.43556 2.25042 2.53035 2.16017 2.62736 2.07225C2.72437 1.98433 2.82347 1.89885 2.92467 1.8158C3.02587 1.73274 3.12904 1.65222 3.2342 1.57423C3.33935 1.49625 3.44635 1.42089 3.55521 1.34815C3.66406 1.27542 3.77463 1.2054 3.88693 1.1381C3.99922 1.07079 4.11309 1.00628 4.22856 0.944563C4.34402 0.882853 4.46092 0.824009 4.57927 0.768032C4.69761 0.712059 4.81726 0.659021 4.93821 0.608921C5.05916 0.558823 5.18127 0.511719 5.30454 0.467617C5.4278 0.423511 5.55207 0.382456 5.67735 0.344452C5.80264 0.306448 5.92877 0.271542 6.05577 0.239733C6.18276 0.207922 6.31046 0.179247 6.43886 0.153706C6.56727 0.128164 6.69621 0.105791 6.82572 0.0865784C6.95521 0.0673714 7.08511 0.0513515 7.2154 0.038517C7.34569 0.0256824 7.47621 0.0160542 7.60697 0.00963211C7.73773 0.00320816 7.86857 -1.90735e-06 7.99948 0C7.99948 0 7.99948 0 7.99948 0Z" transform="matrix(0.7071068 0.7071068 -0.7071068 0.7071068 27.00159 9.536743E-07)" id="path_2" />
    <clipPath id="mask_1">
      <use xlink:href="#path_1" />
    </clipPath>
    <clipPath id="mask_2">
      <use xlink:href="#path_2" />
    </clipPath>
  </defs>
  <g id="icon-disabled">
    <g id="icon">
      <path d="M0 0L48 0L48 48L0 48L0 0Z" id="artboard_1" fill="none" stroke="none" />
      <g clip-path="url(#mask_1)">
        <path d="M0 0L48 0L48 48L0 48L0 0Z" id="artboard_1" fill="#FFFFFF" fill-opacity="0" stroke="none" />
        <g id="Rectangle" transform="translate(-3 -3)">
          <path d="M7.99948 0L30.1866 1.90735e-06C30.3175 -1.90735e-06 30.4483 0.00321197 30.5791 0.00963402C30.7099 0.016058 30.8404 0.0256901 30.9707 0.0385189C31.1009 0.0513515 31.2309 0.0673733 31.3604 0.0865765C31.4899 0.105791 31.6188 0.128166 31.7472 0.153706C31.8756 0.179245 32.0033 0.20792 32.1303 0.239733C32.2573 0.271543 32.3835 0.30645 32.5088 0.344452C32.634 0.382454 32.7583 0.423511 32.8816 0.467617C33.0048 0.511719 33.1269 0.558821 33.2479 0.608923C33.3689 0.659025 33.4885 0.712059 33.6068 0.768034C33.7252 0.824011 33.8421 0.882851 33.9576 0.944567C34.073 1.00628 34.1869 1.07079 34.2992 1.13809C34.4115 1.2054 34.522 1.27542 34.6309 1.34815C34.7398 1.42089 34.8468 1.49625 34.9519 1.57423C35.057 1.65222 35.1602 1.73274 35.2614 1.8158C35.3626 1.89885 35.4617 1.98433 35.5587 2.07226C35.6558 2.16017 35.7505 2.25042 35.8431 2.34299C35.9357 2.43556 36.0259 2.53035 36.1138 2.62736C36.2017 2.72436 36.2872 2.82347 36.3703 2.92466C36.4534 3.02586 36.5339 3.12904 36.6118 3.23419C36.6898 3.33935 36.7652 3.44635 36.8379 3.5552C36.9107 3.66406 36.9807 3.77463 37.0479 3.88693C37.1153 3.99922 37.1798 4.11309 37.2416 4.22855C37.3032 4.34401 37.3621 4.46092 37.4181 4.57926C37.474 4.69761 37.527 4.81726 37.5772 4.93821C37.6273 5.05916 37.6743 5.18127 37.7185 5.30454C37.7626 5.4278 37.8036 5.55207 37.8416 5.67735C37.8796 5.80263 37.9145 5.92877 37.9464 6.05576C37.9782 6.18276 38.0069 6.31046 38.0324 6.43886C38.0579 6.56726 38.0803 6.69621 38.0995 6.82571C38.1187 6.95521 38.1347 7.08511 38.1476 7.21539C38.1604 7.34568 38.17 7.4762 38.1764 7.60697C38.1829 7.73773 38.1861 7.86857 38.1861 7.99948C38.1861 7.99948 38.1861 30.1865 38.1861 30.1865C38.1861 30.3175 38.1829 30.4483 38.1764 30.579C38.17 30.7099 38.1604 30.8404 38.1476 30.9707C38.1347 31.1009 38.1187 31.2308 38.0995 31.3603C38.0803 31.4898 38.0579 31.6188 38.0324 31.7472C38.0069 31.8756 37.9782 32.0033 37.9464 32.1302C37.9145 32.2573 37.8796 32.3834 37.8416 32.5087C37.8036 32.6339 37.7625 32.7582 37.7185 32.8815C37.6744 33.0048 37.6273 33.1269 37.5772 33.2478C37.527 33.3688 37.474 33.4884 37.4181 33.6068C37.3621 33.7252 37.3032 33.842 37.2416 33.9575C37.1798 34.0729 37.1153 34.1868 37.0479 34.2992C36.9807 34.4114 36.9107 34.522 36.8379 34.6308C36.7652 34.7397 36.6898 34.8467 36.6118 34.9518C36.5339 35.057 36.4534 35.1602 36.3703 35.2614C36.2872 35.3626 36.2017 35.4616 36.1138 35.5587C36.0259 35.6557 35.9357 35.7505 35.8431 35.8431C35.7505 35.9356 35.6558 36.0258 35.5587 36.1138C35.4617 36.2017 35.3626 36.2872 35.2614 36.3703C35.1602 36.4533 35.0571 36.5338 34.9519 36.6118C34.8468 36.6898 34.7398 36.7652 34.6309 36.8379C34.522 36.9107 34.4114 36.9807 34.2992 37.0479C34.1869 37.1153 34.073 37.1798 33.9576 37.2415C33.8421 37.3032 33.7252 37.3621 33.6068 37.4181C33.4885 37.474 33.3689 37.527 33.2479 37.5772C33.1269 37.6273 33.0048 37.6743 32.8816 37.7185C32.7583 37.7625 32.634 37.8036 32.5088 37.8416C32.3835 37.8796 32.2574 37.9145 32.1303 37.9463C32.0033 37.9781 31.8756 38.0068 31.7472 38.0323C31.6188 38.0579 31.4899 38.0803 31.3604 38.0995C31.2309 38.1187 31.1009 38.1347 30.9707 38.1475C30.8404 38.1604 30.7099 38.17 30.5791 38.1764C30.4483 38.1828 30.3175 38.186 30.1866 38.186C30.1866 38.186 7.99949 38.186 7.99949 38.186C7.86857 38.186 7.73773 38.1828 7.60697 38.1764C7.47621 38.17 7.34568 38.1604 7.2154 38.1475C7.08511 38.1347 6.95521 38.1187 6.82571 38.0995C6.69621 38.0803 6.56726 38.0579 6.43886 38.0323C6.31046 38.0068 6.18276 37.9781 6.05577 37.9463C5.92877 37.9145 5.80264 37.8796 5.67735 37.8416C5.55207 37.8036 5.4278 37.7625 5.30454 37.7184C5.18127 37.6743 5.05916 37.6273 4.93821 37.5772C4.81726 37.527 4.69761 37.474 4.57927 37.4181C4.46092 37.3621 4.34402 37.3032 4.22856 37.2415C4.1131 37.1798 3.99922 37.1153 3.88692 37.0479C3.77464 36.9807 3.66406 36.9107 3.55521 36.8379C3.44636 36.7652 3.33935 36.6898 3.2342 36.6118C3.12904 36.5338 3.02587 36.4533 2.92467 36.3703C2.82347 36.2872 2.72437 36.2017 2.62736 36.1138C2.53035 36.0258 2.43557 35.9356 2.34299 35.8431C2.25042 35.7505 2.16018 35.6557 2.07225 35.5587C1.98434 35.4616 1.89885 35.3626 1.8158 35.2614C1.73275 35.1602 1.65223 35.057 1.57424 34.9518C1.49625 34.8467 1.42089 34.7397 1.34815 34.6308C1.27542 34.522 1.2054 34.4114 1.1381 34.2992C1.0708 34.1868 1.00629 34.0729 0.944571 33.9575C0.882854 33.842 0.824011 33.7252 0.768038 33.6068C0.712063 33.4884 0.659025 33.3688 0.608927 33.2478C0.558825 33.1269 0.511724 33.0048 0.467617 32.8815C0.423513 32.7582 0.382462 32.6339 0.344456 32.5087C0.306452 32.3834 0.271545 32.2572 0.239735 32.1302C0.207928 32.0033 0.179249 31.8756 0.153709 31.7472C0.12817 31.6188 0.105793 31.4898 0.0865841 31.3603C0.0673733 31.2308 0.0513535 31.1009 0.0385208 30.9707C0.0256882 30.8404 0.0160599 30.7099 0.00963593 30.5791C0.00321388 30.4483 1.90735e-06 30.3175 1.90735e-06 30.1865C1.90735e-06 30.1865 0 7.99948 0 7.99948C0 7.86857 0.00321388 7.73773 0.00963783 7.60697C0.0160618 7.47621 0.0256901 7.34568 0.0385208 7.21539C0.0513535 7.08511 0.0673752 6.95521 0.0865822 6.82571C0.105795 6.69621 0.12817 6.56726 0.153709 6.43886C0.179247 6.31046 0.207926 6.18276 0.239735 6.05577C0.271544 5.92877 0.30645 5.80263 0.344458 5.67735C0.38246 5.55207 0.423513 5.4278 0.467619 5.30454C0.511723 5.18127 0.558826 5.05916 0.608927 4.93821C0.659027 4.81726 0.712063 4.69761 0.768038 4.57926C0.824013 4.46092 0.882854 4.34402 0.944571 4.22855C1.00629 4.11309 1.0708 3.99922 1.1381 3.88692C1.2054 3.77463 1.27542 3.66406 1.34815 3.5552C1.42089 3.44635 1.49625 3.33935 1.57424 3.23419C1.65223 3.12904 1.73275 3.02586 1.8158 2.92466C1.89885 2.82347 1.98434 2.72436 2.07226 2.62736C2.16017 2.53035 2.25042 2.43556 2.34299 2.34299C2.43556 2.25042 2.53035 2.16017 2.62736 2.07225C2.72437 1.98433 2.82347 1.89885 2.92467 1.8158C3.02587 1.73274 3.12904 1.65222 3.2342 1.57423C3.33935 1.49625 3.44635 1.42089 3.55521 1.34815C3.66406 1.27542 3.77463 1.2054 3.88693 1.1381C3.99922 1.07079 4.11309 1.00628 4.22856 0.944563C4.34402 0.882853 4.46092 0.824009 4.57927 0.768032C4.69761 0.712059 4.81726 0.659021 4.93821 0.608921C5.05916 0.558823 5.18127 0.511719 5.30454 0.467617C5.4278 0.423511 5.55207 0.382456 5.67735 0.344452C5.80264 0.306448 5.92877 0.271542 6.05577 0.239733C6.18276 0.207922 6.31046 0.179247 6.43886 0.153706C6.56727 0.128164 6.69621 0.105791 6.82572 0.0865784C6.95521 0.0673714 7.08511 0.0513515 7.2154 0.038517C7.34569 0.0256824 7.47621 0.0160542 7.60697 0.00963211C7.73773 0.00320816 7.86857 -1.90735e-06 7.99948 0C7.99948 0 7.99948 0 7.99948 0Z" transform="matrix(0.7071068 0.7071068 -0.7071068 0.7071068 27.00159 9.536743E-07)" id="path_1" fill="#5D5D5D" stroke="none" />
          <g id="Group">
            <path d="M7.99948 0L30.1866 1.90735e-06C30.3175 -1.90735e-06 30.4483 0.00321197 30.5791 0.00963402C30.7099 0.016058 30.8404 0.0256901 30.9707 0.0385189C31.1009 0.0513515 31.2309 0.0673733 31.3604 0.0865765C31.4899 0.105791 31.6188 0.128166 31.7472 0.153706C31.8756 0.179245 32.0033 0.20792 32.1303 0.239733C32.2573 0.271543 32.3835 0.30645 32.5088 0.344452C32.634 0.382454 32.7583 0.423511 32.8816 0.467617C33.0048 0.511719 33.1269 0.558821 33.2479 0.608923C33.3689 0.659025 33.4885 0.712059 33.6068 0.768034C33.7252 0.824011 33.8421 0.882851 33.9576 0.944567C34.073 1.00628 34.1869 1.07079 34.2992 1.13809C34.4115 1.2054 34.522 1.27542 34.6309 1.34815C34.7398 1.42089 34.8468 1.49625 34.9519 1.57423C35.057 1.65222 35.1602 1.73274 35.2614 1.8158C35.3626 1.89885 35.4617 1.98433 35.5587 2.07226C35.6558 2.16017 35.7505 2.25042 35.8431 2.34299C35.9357 2.43556 36.0259 2.53035 36.1138 2.62736C36.2017 2.72436 36.2872 2.82347 36.3703 2.92466C36.4534 3.02586 36.5339 3.12904 36.6118 3.23419C36.6898 3.33935 36.7652 3.44635 36.8379 3.5552C36.9107 3.66406 36.9807 3.77463 37.0479 3.88693C37.1153 3.99922 37.1798 4.11309 37.2416 4.22855C37.3032 4.34401 37.3621 4.46092 37.4181 4.57926C37.474 4.69761 37.527 4.81726 37.5772 4.93821C37.6273 5.05916 37.6743 5.18127 37.7185 5.30454C37.7626 5.4278 37.8036 5.55207 37.8416 5.67735C37.8796 5.80263 37.9145 5.92877 37.9464 6.05576C37.9782 6.18276 38.0069 6.31046 38.0324 6.43886C38.0579 6.56726 38.0803 6.69621 38.0995 6.82571C38.1187 6.95521 38.1347 7.08511 38.1476 7.21539C38.1604 7.34568 38.17 7.4762 38.1764 7.60697C38.1829 7.73773 38.1861 7.86857 38.1861 7.99948C38.1861 7.99948 38.1861 30.1865 38.1861 30.1865C38.1861 30.3175 38.1829 30.4483 38.1764 30.579C38.17 30.7099 38.1604 30.8404 38.1476 30.9707C38.1347 31.1009 38.1187 31.2308 38.0995 31.3603C38.0803 31.4898 38.0579 31.6188 38.0324 31.7472C38.0069 31.8756 37.9782 32.0033 37.9464 32.1302C37.9145 32.2573 37.8796 32.3834 37.8416 32.5087C37.8036 32.6339 37.7625 32.7582 37.7185 32.8815C37.6744 33.0048 37.6273 33.1269 37.5772 33.2478C37.527 33.3688 37.474 33.4884 37.4181 33.6068C37.3621 33.7252 37.3032 33.842 37.2416 33.9575C37.1798 34.0729 37.1153 34.1868 37.0479 34.2992C36.9807 34.4114 36.9107 34.522 36.8379 34.6308C36.7652 34.7397 36.6898 34.8467 36.6118 34.9518C36.5339 35.057 36.4534 35.1602 36.3703 35.2614C36.2872 35.3626 36.2017 35.4616 36.1138 35.5587C36.0259 35.6557 35.9357 35.7505 35.8431 35.8431C35.7505 35.9356 35.6558 36.0258 35.5587 36.1138C35.4617 36.2017 35.3626 36.2872 35.2614 36.3703C35.1602 36.4533 35.0571 36.5338 34.9519 36.6118C34.8468 36.6898 34.7398 36.7652 34.6309 36.8379C34.522 36.9107 34.4114 36.9807 34.2992 37.0479C34.1869 37.1153 34.073 37.1798 33.9576 37.2415C33.8421 37.3032 33.7252 37.3621 33.6068 37.4181C33.4885 37.474 33.3689 37.527 33.2479 37.5772C33.1269 37.6273 33.0048 37.6743 32.8816 37.7185C32.7583 37.7625 32.634 37.8036 32.5088 37.8416C32.3835 37.8796 32.2574 37.9145 32.1303 37.9463C32.0033 37.9781 31.8756 38.0068 31.7472 38.0323C31.6188 38.0579 31.4899 38.0803 31.3604 38.0995C31.2309 38.1187 31.1009 38.1347 30.9707 38.1475C30.8404 38.1604 30.7099 38.17 30.5791 38.1764C30.4483 38.1828 30.3175 38.186 30.1866 38.186C30.1866 38.186 7.99949 38.186 7.99949 38.186C7.86857 38.186 7.73773 38.1828 7.60697 38.1764C7.47621 38.17 7.34568 38.1604 7.2154 38.1475C7.08511 38.1347 6.95521 38.1187 6.82571 38.0995C6.69621 38.0803 6.56726 38.0579 6.43886 38.0323C6.31046 38.0068 6.18276 37.9781 6.05577 37.9463C5.92877 37.9145 5.80264 37.8796 5.67735 37.8416C5.55207 37.8036 5.4278 37.7625 5.30454 37.7184C5.18127 37.6743 5.05916 37.6273 4.93821 37.5772C4.81726 37.527 4.69761 37.474 4.57927 37.4181C4.46092 37.3621 4.34402 37.3032 4.22856 37.2415C4.1131 37.1798 3.99922 37.1153 3.88692 37.0479C3.77464 36.9807 3.66406 36.9107 3.55521 36.8379C3.44636 36.7652 3.33935 36.6898 3.2342 36.6118C3.12904 36.5338 3.02587 36.4533 2.92467 36.3703C2.82347 36.2872 2.72437 36.2017 2.62736 36.1138C2.53035 36.0258 2.43557 35.9356 2.34299 35.8431C2.25042 35.7505 2.16018 35.6557 2.07225 35.5587C1.98434 35.4616 1.89885 35.3626 1.8158 35.2614C1.73275 35.1602 1.65223 35.057 1.57424 34.9518C1.49625 34.8467 1.42089 34.7397 1.34815 34.6308C1.27542 34.522 1.2054 34.4114 1.1381 34.2992C1.0708 34.1868 1.00629 34.0729 0.944571 33.9575C0.882854 33.842 0.824011 33.7252 0.768038 33.6068C0.712063 33.4884 0.659025 33.3688 0.608927 33.2478C0.558825 33.1269 0.511724 33.0048 0.467617 32.8815C0.423513 32.7582 0.382462 32.6339 0.344456 32.5087C0.306452 32.3834 0.271545 32.2572 0.239735 32.1302C0.207928 32.0033 0.179249 31.8756 0.153709 31.7472C0.12817 31.6188 0.105793 31.4898 0.0865841 31.3603C0.0673733 31.2308 0.0513535 31.1009 0.0385208 30.9707C0.0256882 30.8404 0.0160599 30.7099 0.00963593 30.5791C0.00321388 30.4483 1.90735e-06 30.3175 1.90735e-06 30.1865C1.90735e-06 30.1865 0 7.99948 0 7.99948C0 7.86857 0.00321388 7.73773 0.00963783 7.60697C0.0160618 7.47621 0.0256901 7.34568 0.0385208 7.21539C0.0513535 7.08511 0.0673752 6.95521 0.0865822 6.82571C0.105795 6.69621 0.12817 6.56726 0.153709 6.43886C0.179247 6.31046 0.207926 6.18276 0.239735 6.05577C0.271544 5.92877 0.30645 5.80263 0.344458 5.67735C0.38246 5.55207 0.423513 5.4278 0.467619 5.30454C0.511723 5.18127 0.558826 5.05916 0.608927 4.93821C0.659027 4.81726 0.712063 4.69761 0.768038 4.57926C0.824013 4.46092 0.882854 4.34402 0.944571 4.22855C1.00629 4.11309 1.0708 3.99922 1.1381 3.88692C1.2054 3.77463 1.27542 3.66406 1.34815 3.5552C1.42089 3.44635 1.49625 3.33935 1.57424 3.23419C1.65223 3.12904 1.73275 3.02586 1.8158 2.92466C1.89885 2.82347 1.98434 2.72436 2.07226 2.62736C2.16017 2.53035 2.25042 2.43556 2.34299 2.34299C2.43556 2.25042 2.53035 2.16017 2.62736 2.07225C2.72437 1.98433 2.82347 1.89885 2.92467 1.8158C3.02587 1.73274 3.12904 1.65222 3.2342 1.57423C3.33935 1.49625 3.44635 1.42089 3.55521 1.34815C3.66406 1.27542 3.77463 1.2054 3.88693 1.1381C3.99922 1.07079 4.11309 1.00628 4.22856 0.944563C4.34402 0.882853 4.46092 0.824009 4.57927 0.768032C4.69761 0.712059 4.81726 0.659021 4.93821 0.608921C5.05916 0.558823 5.18127 0.511719 5.30454 0.467617C5.4278 0.423511 5.55207 0.382456 5.67735 0.344452C5.80264 0.306448 5.92877 0.271542 6.05577 0.239733C6.18276 0.207922 6.31046 0.179247 6.43886 0.153706C6.56727 0.128164 6.69621 0.105791 6.82572 0.0865784C6.95521 0.0673714 7.08511 0.0513515 7.2154 0.038517C7.34569 0.0256824 7.47621 0.0160542 7.60697 0.00963211C7.73773 0.00320816 7.86857 -1.90735e-06 7.99948 0C7.99948 0 7.99948 0 7.99948 0Z" transform="matrix(0.7071068 0.7071068 -0.7071068 0.7071068 27.00159 9.536743E-07)" id="path_1" fill="none" stroke="none" />
            <g clip-path="url(#mask_2)">
              <path d="M48.4448 18.6164L32.7571 2.92864C32.6414 2.81295 32.5229 2.70014 32.4016 2.59023C32.2804 2.48035 32.1565 2.3735 32.03 2.26967C31.9035 2.16588 31.7746 2.06523 31.6431 1.96773C31.5116 1.87024 31.3779 1.77605 31.2419 1.68515C31.1058 1.59424 30.9676 1.50672 30.8272 1.42257C30.6868 1.33844 30.5445 1.25781 30.4002 1.18067C30.2559 1.10353 30.1098 1.02998 29.9618 0.960025C29.8139 0.890057 29.6643 0.823756 29.5131 0.761122C29.362 0.698504 29.2093 0.639632 29.0553 0.584508C28.9012 0.529385 28.7459 0.478068 28.5892 0.430555C28.4327 0.383058 28.275 0.339428 28.1163 0.299667C27.9575 0.259902 27.7979 0.224051 27.6374 0.192115C27.4769 0.1602 27.3157 0.132234 27.1538 0.108217C26.992 0.0842142 26.8296 0.0641936 26.6668 0.0481548C26.5039 0.0321159 26.3408 0.0200803 26.1774 0.012048C26.0139 0.00401628 25.8504 0 25.6867 0C25.523 0 25.3595 0.0040164 25.196 0.0120482C25.0326 0.0200796 24.8695 0.0321151 24.7066 0.0481548Q24.4624 0.0722121 24.2195 0.108229C24.0577 0.132238 23.8965 0.160206 23.736 0.192133C23.5755 0.224059 23.4159 0.259904 23.2571 0.299667C23.0984 0.339429 22.9407 0.383061 22.7841 0.430564C22.6275 0.478071 22.4722 0.529384 22.3181 0.584504C22.1641 0.639631 22.0114 0.698506 21.8603 0.76113C21.7091 0.823758 21.5595 0.890052 21.4116 0.96001C21.2637 1.02997 21.1175 1.10353 20.9732 1.18068C20.8289 1.25781 20.6866 1.33844 20.5462 1.42258C20.4058 1.50673 20.2676 1.59425 20.1316 1.68513Q19.9275 1.8215 19.7303 1.96773C19.5989 2.06521 19.4699 2.16586 19.3434 2.26967C19.2169 2.37348 19.093 2.48034 18.9718 2.59025C18.8505 2.70017 18.732 2.81297 18.6163 2.92864L2.92868 18.6163C2.81296 18.732 2.70017 18.8505 2.5903 18.9717C2.4804 19.093 2.37351 19.2169 2.26965 19.3434C2.16582 19.47 2.06521 19.5989 1.96782 19.7302C1.87029 19.8617 1.77606 19.9955 1.68514 20.1315C1.59418 20.2677 1.50668 20.4059 1.42265 20.5461C1.33848 20.6865 1.25783 20.8289 1.18069 20.9732C1.10356 21.1175 1.03001 21.2636 0.960055 21.4115C0.890057 21.5595 0.823753 21.7091 0.761143 21.8603C0.698582 22.0113 0.639687 22.164 0.58446 22.3182C0.529294 22.4724 0.478017 22.6277 0.430628 22.784Q0.359382 23.0188 0.299605 23.2573C0.259835 23.4161 0.224032 23.5756 0.192194 23.7358C0.160249 23.8964 0.132292 24.0575 0.108322 24.2191C0.0842546 24.3811 0.064169 24.5438 0.0480649 24.7073C0.032102 24.8698 0.020107 25.0328 0.0120803 25.1961C0.00405765 25.3594 3.08752e-05 25.5231 0 25.6871C3.09944e-05 25.8505 0.00404906 26.0139 0.0120541 26.1771C0.0200694 26.3406 0.0321114 26.504 0.0481802 26.6674C0.0642409 26.83 0.0842476 26.9921 0.1082 27.1536C0.132195 27.3155 0.160157 27.4767 0.192088 27.6373Q0.240005 27.8783 0.299572 28.1158C0.339403 28.275 0.383042 28.4327 0.430489 28.5889C0.477942 28.7454 0.529326 28.901 0.584643 29.0557C0.639661 29.2094 0.698532 29.362 0.761256 29.5135C0.823915 29.6647 0.890119 29.814 0.959866 29.9614C1.02989 30.1095 1.10349 30.2558 1.18067 30.4002C1.25782 30.5445 1.33848 30.6869 1.42264 30.8273C1.50676 30.9676 1.5941 31.1055 1.68466 31.241C1.77572 31.3774 1.8701 31.5115 1.9678 31.6432C2.06538 31.7748 2.16589 31.9036 2.26936 32.0296C2.37336 32.1564 2.48039 32.2804 2.59047 32.4018C2.70031 32.523 2.81304 32.6414 2.92868 32.757L18.6164 48.4448C18.732 48.5603 18.8504 48.6731 18.9716 48.783C19.093 48.893 19.2168 48.9999 19.3431 49.1034C19.4696 49.2073 19.5987 49.3081 19.7303 49.4057C19.862 49.5034 19.9957 49.5975 20.1315 49.6882C20.2676 49.7791 20.4057 49.8666 20.5461 49.9507C20.6866 50.035 20.829 50.1156 20.9733 50.1928C21.1174 50.2698 21.2637 50.3434 21.4122 50.4138C21.5597 50.4834 21.7092 50.5497 21.8609 50.6126C22.0117 50.675 22.1643 50.7339 22.3186 50.7891C22.4727 50.8442 22.6277 50.8954 22.7835 50.9426C22.9404 50.9903 23.0982 51.034 23.2568 51.0737C23.4156 51.1135 23.5753 51.1493 23.7359 51.1813Q23.9769 51.2293 24.2199 51.2652C24.3814 51.2892 24.5437 51.3092 24.7067 51.3253C24.8696 51.3413 25.0328 51.3534 25.1963 51.3614C25.3597 51.3694 25.5232 51.3734 25.6867 51.3734C25.8506 51.3734 26.0141 51.3694 26.1772 51.3613C26.3405 51.3533 26.5036 51.3413 26.6667 51.3253C26.8299 51.3092 26.9922 51.2892 27.1535 51.2652C27.3156 51.2412 27.4767 51.2132 27.637 51.1813C27.7978 51.1494 27.9576 51.1135 28.1162 51.0738C28.2749 51.034 28.4327 50.9903 28.5895 50.9428C28.7458 50.8954 28.9014 50.844 29.0561 50.7886C29.2096 50.7336 29.3621 50.6748 29.5135 50.6122C29.6644 50.5496 29.814 50.4833 29.9624 50.4131C30.1102 50.3432 30.2561 50.2697 30.4001 50.1927C30.5442 50.1158 30.6865 50.0351 30.8273 49.9509C30.9676 49.8667 31.1059 49.7792 31.2419 49.6883C31.378 49.5973 31.5118 49.5031 31.6432 49.4056C31.7745 49.3083 31.9035 49.2075 32.0304 49.1035C32.1568 48.9997 32.2804 48.893 32.4012 48.7836C32.5226 48.6735 32.6413 48.5606 32.7571 48.4448L48.4448 32.7571C48.5607 32.6412 48.6734 32.5228 48.7829 32.4019C48.8928 32.2807 48.9999 32.1566 49.1041 32.0296C49.2078 31.9033 49.3083 31.7745 49.4056 31.6432C49.5031 31.5118 49.5973 31.3781 49.6882 31.242C49.7791 31.106 49.8668 30.9675 49.9513 30.8265C50.0353 30.6863 50.1157 30.5442 50.1927 30.4002C50.2697 30.2561 50.3434 30.1099 50.4136 29.9615C50.4834 29.8138 50.5497 29.6642 50.6125 29.5127C50.6749 29.3618 50.7338 29.2092 50.789 29.0549C50.844 28.9012 50.8953 28.7459 50.943 28.589C50.9905 28.4323 51.034 28.2749 51.0736 28.1168C51.1134 27.9579 51.1493 27.7981 51.1813 27.6373C51.2132 27.4767 51.2412 27.3158 51.2651 27.1545C51.2892 26.9924 51.3092 26.8298 51.3253 26.6666C51.3413 26.5039 51.3533 26.341 51.3613 26.1779C51.3694 26.0142 51.3734 25.8505 51.3734 25.687Q51.3734 25.4414 51.3614 25.1961C51.3534 25.0326 51.3413 24.8694 51.3253 24.7065C51.3092 24.5437 51.2892 24.3814 51.2652 24.2196C51.2412 24.0577 51.2132 23.8964 51.1813 23.7358C51.1493 23.5754 51.1135 23.4159 51.0738 23.2573C51.034 23.0984 50.9904 22.9407 50.9428 22.7841C50.8953 22.6275 50.844 22.4722 50.7889 22.3182C50.7338 22.164 50.6749 22.0113 50.6122 21.86Q50.5183 21.6335 50.4134 21.4116C50.3435 21.2638 50.27 21.1177 50.1928 20.9733C50.1157 20.829 50.035 20.6866 49.9508 20.5462C49.8667 20.4058 49.7792 20.2676 49.6883 20.1315C49.5974 19.9955 49.5032 19.8618 49.4057 19.7303C49.3082 19.5988 49.2075 19.4698 49.1037 19.3434C48.9998 19.2168 48.893 19.0929 48.7832 18.9718C48.6733 18.8505 48.5605 18.7321 48.4448 18.6164ZM29.7154 5.55405C29.7882 5.61999 29.8592 5.68766 29.9286 5.75706L45.6164 21.4448C45.6858 21.5142 45.7534 21.5853 45.8194 21.6581C45.8853 21.7307 45.9494 21.805 46.0117 21.881C46.074 21.9569 46.1344 22.0343 46.1929 22.1132C46.2514 22.192 46.3079 22.2722 46.3624 22.3539C46.417 22.4355 46.4695 22.5184 46.52 22.6027C46.5704 22.6869 46.6188 22.7723 46.6651 22.8588Q46.7345 22.9887 46.7975 23.1219C46.8394 23.2106 46.8792 23.3004 46.9169 23.3913C46.9544 23.4817 46.9896 23.5732 47.0227 23.6657C47.0558 23.7582 47.0866 23.8514 47.1151 23.9454C47.1436 24.0392 47.1698 24.1338 47.1936 24.229Q47.2294 24.372 47.2582 24.5166C47.2773 24.6127 47.2941 24.7093 47.3085 24.8064Q47.3301 24.952 47.3446 25.0989C47.3542 25.1965 47.3614 25.2943 47.3662 25.3924C47.371 25.4903 47.3734 25.5883 47.3734 25.6863C47.3734 25.7848 47.371 25.8828 47.3662 25.9804C47.3613 26.0791 47.3541 26.1773 47.3445 26.2749C47.3349 26.3724 47.3229 26.4695 47.3086 26.5663C47.2941 26.6639 47.2773 26.7609 47.2581 26.8572C47.239 26.9532 47.2176 27.0488 47.1937 27.1438C47.1698 27.2396 47.1435 27.3345 47.115 27.4284C47.0866 27.5222 47.0558 27.6154 47.0226 27.7081C46.9896 27.8003 46.9543 27.8919 46.9166 27.983C46.8791 28.0733 46.8394 28.163 46.7973 28.252C46.7555 28.3404 46.7114 28.4279 46.6651 28.5145C46.6186 28.6014 46.5701 28.6871 46.5195 28.7716C46.4693 28.8553 46.417 28.9379 46.3625 29.0195C46.3079 29.1011 46.2514 29.1814 46.1929 29.2602C46.1343 29.3393 46.0738 29.4169 46.0114 29.4929C45.9495 29.5683 45.8856 29.6423 45.8196 29.7151C45.7534 29.7882 45.6856 29.8594 45.6163 29.9287L29.9287 45.6163C29.8594 45.6856 29.7885 45.7531 29.7159 45.8189C29.6426 45.8853 29.568 45.9497 29.4921 46.0121C29.4166 46.074 29.3393 46.1343 29.2603 46.1929C29.1813 46.2514 29.1011 46.308 29.0195 46.3625C28.938 46.417 28.8551 46.4695 28.7709 46.5199C28.6869 46.5702 28.6015 46.6186 28.5147 46.6649C28.4279 46.7113 28.34 46.7556 28.2511 46.7977C28.1627 46.8395 28.073 46.8792 27.9822 46.9169C27.8915 46.9544 27.7997 46.9898 27.7069 47.0231C27.6151 47.0559 27.5221 47.0866 27.428 47.1151C27.3342 47.1436 27.2397 47.1697 27.1444 47.1936C27.0492 47.2175 26.9536 47.2389 26.8576 47.258C26.7611 47.2772 26.6643 47.294 26.5673 47.3084C26.4697 47.3229 26.3722 47.335 26.2748 47.3445C26.1775 47.3541 26.0796 47.3613 25.9813 47.3661C25.883 47.371 25.7848 47.3734 25.6867 47.3734C25.5886 47.3734 25.4904 47.371 25.3922 47.3662C25.2941 47.3614 25.1962 47.3542 25.0986 47.3445C25.001 47.3349 24.9035 47.3229 24.8062 47.3084C24.7092 47.2941 24.6127 47.2773 24.5165 47.2582C24.4202 47.239 24.3246 47.2176 24.2295 47.1937C24.134 47.1698 24.0395 47.1437 23.946 47.1153C23.8515 47.0866 23.7579 47.0557 23.6653 47.0226C23.5731 46.9896 23.4815 46.9543 23.3904 46.9166C23.3001 46.8791 23.2103 46.8393 23.1212 46.7972C23.033 46.7554 22.9455 46.7114 22.8589 46.6651C22.7724 46.6188 22.687 46.5705 22.6028 46.52C22.5186 46.4695 22.4357 46.417 22.354 46.3624C22.272 46.3077 22.1917 46.2512 22.1132 46.1929Q21.9951 46.1053 21.8814 46.012C21.8051 45.9494 21.7308 45.8853 21.6583 45.8196C21.5855 45.7536 21.5143 45.6858 21.4448 45.6163L5.75711 29.9286C5.6876 29.8591 5.61984 29.7879 5.55383 29.7151C5.48809 29.6426 5.42417 29.5685 5.36208 29.4928C5.29944 29.4165 5.23889 29.339 5.18046 29.2602C5.12218 29.1816 5.06589 29.1017 5.01157 29.0203C4.95663 28.9381 4.90392 28.8549 4.85347 28.7707C4.80299 28.6865 4.75463 28.6011 4.70838 28.5146Q4.63906 28.3849 4.57621 28.252C4.53393 28.1626 4.49402 28.0727 4.45647 27.9821Q4.40028 27.8463 4.3505 27.7073C4.3176 27.6153 4.28692 27.5223 4.25845 27.4284C4.22985 27.3342 4.20367 27.2397 4.17991 27.1447C4.15592 27.0491 4.13437 26.9532 4.11528 26.8572C4.09613 26.7609 4.07936 26.6642 4.06497 26.5671C4.05054 26.4698 4.03848 26.3721 4.02881 26.2742C4.01925 26.177 4.01207 26.0794 4.00726 25.9812C4.00244 25.883 4.00002 25.7847 4 25.6863C4.00002 25.5885 4.00244 25.4905 4.00727 25.3923C4.01209 25.2941 4.01931 25.196 4.02892 25.0981Q4.04328 24.9524 4.06491 24.8068C4.07935 24.7094 4.09614 24.6126 4.11529 24.5164C4.13446 24.4199 4.15596 24.3241 4.17979 24.229C4.20361 24.134 4.22979 24.0394 4.25833 23.9453Q4.30112 23.8042 4.35068 23.6657C4.38373 23.5733 4.41907 23.4817 4.4567 23.3909C4.49424 23.3003 4.534 23.2106 4.57598 23.1218C4.61797 23.033 4.66211 22.9453 4.7084 22.8587C4.75466 22.7722 4.80303 22.6868 4.85349 22.6026C4.90398 22.5184 4.95648 22.4354 5.01099 22.3539C5.06551 22.2723 5.12203 22.192 5.18054 22.1131C5.23906 22.0342 5.29946 21.9568 5.36172 21.881C5.42401 21.8051 5.48812 21.7307 5.55404 21.658C5.61999 21.5852 5.68768 21.5141 5.75711 21.4447L21.4448 5.75707C21.5142 5.68766 21.5853 5.61998 21.658 5.55402C21.7308 5.4881 21.8051 5.424 21.881 5.36171C21.9569 5.29943 22.0342 5.23904 22.1131 5.18055C22.192 5.12207 22.2722 5.06556 22.3538 5.01102C22.4355 4.95648 22.5184 4.90397 22.6026 4.85348C22.6868 4.80301 22.7722 4.75464 22.8588 4.70835C22.9454 4.66208 23.033 4.61795 23.1218 4.57598C23.2106 4.53399 23.3003 4.49421 23.391 4.45665C23.4817 4.41909 23.5732 4.38377 23.6657 4.35069C23.7581 4.31761 23.8513 4.28682 23.9453 4.25832C24.0392 4.22982 24.1339 4.20364 24.2291 4.17978C24.3243 4.15592 24.4201 4.13441 24.5164 4.11526C24.6126 4.09612 24.7094 4.07934 24.8065 4.06493C24.9036 4.05053 25.001 4.03851 25.0987 4.02889C25.1964 4.01927 25.2943 4.01205 25.3924 4.00723C25.4904 4.00241 25.5885 4 25.6867 4Q25.834 4 25.981 4.00723C26.0791 4.01205 26.177 4.01927 26.2747 4.02889C26.3724 4.03852 26.4698 4.05053 26.567 4.06494C26.6641 4.07934 26.7608 4.09612 26.8571 4.11528C26.9533 4.13442 27.0491 4.15592 27.1443 4.17978C27.2396 4.20364 27.3342 4.22982 27.4281 4.25832C27.5221 4.28682 27.6153 4.31761 27.7077 4.35068C27.8002 4.38376 27.8917 4.41909 27.9824 4.45665Q28.1184 4.51299 28.2516 4.57597C28.3404 4.61795 28.428 4.66208 28.5146 4.70835C28.6012 4.75463 28.6866 4.80301 28.7708 4.85349C28.855 4.90397 28.9379 4.95647 29.0195 5.011C29.1012 5.06556 29.1814 5.12208 29.2603 5.18056Q29.3786 5.26829 29.4924 5.36172C29.5683 5.42401 29.6427 5.48812 29.7154 5.55405Z" transform="translate(1.313248 1.313293)" id="Vector" fill="#2B80FF" fill-rule="evenodd" stroke="none" />
            </g>
          </g>
        </g>
        <path d="M0 8C0 3.58172 3.58172 0 8 0C12.4183 0 16 3.58172 16 8C16 12.4183 12.4183 16 8 16C3.58172 16 0 12.4183 0 8L0 8Z" transform="translate(16 16)" id="Ellipse" fill="#FFFFFF" stroke="none" />
      </g>
    </g>
  </g>
</svg>